<svg width="210" height="21" viewBox="0 0 210 21" fill="none" xmlns="http://www.w3.org/2000/svg">
<rect width="210" height="21" fill="white"/>
<path d="M8.28835 3.34961C12.9406 3.34961 16.6442 6.82737 16.6442 11.1408C16.6442 15.5221 12.9406 18.9998 8.28835 18.9998C3.63614 18.9998 0 15.5221 0 11.1408C0 6.82737 3.63614 3.34961 8.28835 3.34961ZM8.28835 16.7415C9.02973 16.7579 9.76693 16.626 10.4567 16.3536C11.1464 16.0812 11.7747 15.6738 12.3048 15.1552C12.835 14.6367 13.2562 14.0175 13.5437 13.334C13.8313 12.6504 13.9795 11.9163 13.9795 11.1747C13.9795 10.4332 13.8313 9.69908 13.5437 9.01554C13.2562 8.332 12.835 7.71277 12.3048 7.19422C11.7747 6.67568 11.1464 6.26827 10.4567 5.99588C9.76693 5.72348 9.02973 5.59162 8.28835 5.608C7.55257 5.60055 6.82263 5.73904 6.14071 6.01546C5.45878 6.29187 4.83835 6.70071 4.31542 7.21837C3.7925 7.73603 3.37743 8.35221 3.09413 9.0313C2.81082 9.71039 2.66491 10.4389 2.66491 11.1747C2.66491 11.9106 2.81082 12.6391 3.09413 13.3182C3.37743 13.9972 3.7925 14.6134 4.31542 15.1311C4.83835 15.6487 5.45878 16.0576 6.14071 16.334C6.82263 16.6104 7.55257 16.7489 8.28835 16.7415Z" fill="black"/>
<path d="M20.4165 18.5478V3.80078H28.5465C30.5113 3.80078 31.8664 4.34261 32.8149 5.35896C33.5718 6.15772 33.9924 7.21713 33.9894 8.31756C33.9894 10.3047 32.6795 11.8179 30.7372 12.5405L34.2603 18.5478H31.3469L28.1853 12.8793H22.9457V18.5478H20.4165ZM22.9457 6.05917V10.6209H28.9984C29.6284 10.6353 30.239 10.4022 30.6991 9.97155C31.1593 9.54095 31.4324 8.94717 31.4598 8.31756C31.4562 7.76737 31.2373 7.24043 30.8501 6.84957C30.5463 6.55873 30.183 6.3374 29.7852 6.20092C29.3875 6.06444 28.9648 6.01609 28.5465 6.05917H22.9457Z" fill="black"/>
<path d="M36.2261 3.80078H50.3408V6.05917H44.5593V18.5478H42.0301V6.05917H36.2261V3.80078Z" fill="black"/>
<path d="M53.571 18.5478V3.80078H56.1004V9.37887H64.1175V3.80078H66.6471V18.5478H64.1175V11.6372H56.1004V18.5478H53.571Z" fill="black"/>
<path d="M91.2649 18.5478V3.80078H98.3336C100.999 3.80078 102.489 4.54595 103.754 5.76564C105.077 7.29649 105.792 9.26007 105.763 11.2834C105.734 13.3068 104.962 15.249 103.595 16.7411C102.331 17.8703 100.999 18.5478 98.3335 18.5478H91.2649ZM98.2207 16.2894C100.095 16.2894 100.727 15.8604 101.608 15.1376C102.613 14.0619 103.157 12.6349 103.121 11.163C103.169 9.73945 102.658 8.35361 101.698 7.30117C100.863 6.5334 100.072 6.05917 98.2207 6.05917H93.7942V16.2894H98.2207Z" fill="black"/>
<path d="M116.65 3.34961C121.302 3.34961 125.006 6.82737 125.006 11.1408C125.006 15.5221 121.302 18.9998 116.65 18.9998C111.998 18.9998 108.362 15.5221 108.362 11.1408C108.362 6.82737 111.998 3.34961 116.65 3.34961ZM116.65 16.7415C117.391 16.7579 118.128 16.626 118.818 16.3536C119.508 16.0812 120.136 15.6738 120.666 15.1552C121.197 14.6367 121.618 14.0175 121.905 13.334C122.193 12.6504 122.341 11.9163 122.341 11.1747C122.341 10.4332 122.193 9.69908 121.905 9.01554C121.618 8.332 121.197 7.71277 120.666 7.19422C120.136 6.67568 119.508 6.26827 118.818 5.99588C118.128 5.72348 117.391 5.59162 116.65 5.608C115.914 5.60055 115.184 5.73904 114.502 6.01546C113.82 6.29187 113.2 6.70071 112.677 7.21837C112.154 7.73603 111.739 8.35221 111.456 9.0313C111.172 9.71039 111.026 10.4389 111.026 11.1747C111.026 11.9106 111.172 12.6391 111.456 13.3182C111.739 13.9972 112.154 14.6134 112.677 15.1311C113.2 15.6487 113.82 16.0576 114.502 16.334C115.184 16.6104 115.914 16.7489 116.65 16.7415Z" fill="black"/>
<path d="M142.08 3.80078V18.5478H139.844L131.33 8.31756H131.307V18.5478H128.778V3.80078H131.014L139.528 14.0311H139.55V3.80078H142.08Z" fill="black"/>
<path d="M145.31 3.80078H159.425V6.05917H153.643V18.5478H151.114V6.05917H145.31V3.80078Z" fill="black"/>
<path d="M162.655 18.5478V3.80078H165.184V18.5478H162.655Z" fill="black"/>
<path d="M184.313 15.9284C183.364 16.8946 182.232 17.6635 180.984 18.1906C179.736 18.7177 178.396 18.9927 177.041 18.9998C172.186 18.9998 168.979 15.4994 168.979 11.1633C168.964 10.1216 169.16 9.08763 169.556 8.12396C169.952 7.16029 170.54 6.28691 171.283 5.55658C172.026 4.82624 172.909 4.2541 173.879 3.87476C174.85 3.49543 175.887 3.31675 176.928 3.34952C179.472 3.34063 181.931 4.26456 183.839 5.9464L182.122 7.64031C180.708 6.3629 178.879 5.64093 176.973 5.60791C173.744 5.60791 171.644 8.13719 171.644 11.186C171.644 14.2574 173.789 16.7414 177.086 16.7414C178.129 16.7249 179.157 16.4961 180.109 16.0691C181.06 15.642 181.914 15.0255 182.619 14.2574L184.313 15.9284Z" fill="black"/>
<path d="M192.534 3.80078H194.838L201.68 18.5478H198.903L197.119 14.5732H190.095L188.334 18.5478H185.691L192.534 3.80078ZM190.999 12.5405H196.215L193.686 6.82695H193.551L190.999 12.5405Z" fill="black"/>
<path d="M203.011 10.8477H205.789V11.3057H204.688V14.0348H204.122V11.3057H203.011V10.8477ZM209.434 14.0348V11.8417H209.405L208.362 13.5961H208.274L207.232 11.8417H207.202V14.0348H206.666V10.8477H207.251L208.333 12.7094H208.343L209.434 10.8477H210V14.0348H209.434Z" fill="black"/>
<path d="M87.8032 6.50039C87.7784 4.8415 86.5866 3.20521 84.1345 3.01876C83.8056 2.99375 74.4648 2.99375 74.1359 3.01876C71.6838 3.20524 70.492 4.8415 70.4671 6.50039C70.4569 6.61002 70.4512 6.72787 70.4512 6.85622L71.3075 16.653C71.3213 16.978 71.3996 17.297 71.5378 17.5915C71.6759 17.8861 71.8712 18.1502 72.1123 18.3685C72.3534 18.5869 72.6355 18.7552 72.9422 18.8636C73.2489 18.972 73.5741 19.0184 73.8989 19C73.927 19 75.4558 18.9792 75.4558 18.9792C76.848 18.9792 77.2933 17.0483 77.6689 16.388C78.064 15.693 78.2911 15.6217 79.1353 15.6186C79.9795 15.6217 80.2065 15.693 80.6016 16.388C80.9772 17.0483 81.4226 18.9792 82.8147 18.9792C82.8147 18.9792 84.3434 19 84.3716 19C84.6963 19.0184 85.0215 18.972 85.3282 18.8636C85.6349 18.7552 85.9171 18.5869 86.1582 18.3685C86.3993 18.1502 86.5946 17.8861 86.7328 17.5915C86.8709 17.297 86.9491 16.978 86.9629 16.653L87.8193 6.85622C87.8192 6.72789 87.8134 6.61002 87.8032 6.50039ZM84.7922 16.1785C84.6724 16.949 83.7129 16.8162 83.7129 16.8162C83.4508 16.8011 83.1982 16.7129 82.9837 16.5616C82.7691 16.4103 82.6011 16.202 82.4988 15.9602C82.4213 15.8028 82.3357 15.6496 82.2424 15.501C81.9441 14.9527 81.5038 14.4946 80.9677 14.1749C80.4315 13.8552 79.8191 13.6856 79.1949 13.684V13.6798C79.1743 13.6798 79.1556 13.6816 79.1352 13.6819C79.1149 13.6816 79.0961 13.6798 79.0755 13.6798V13.684C78.4512 13.6857 77.8389 13.8552 77.3027 14.1749C76.7665 14.4946 76.3262 14.9527 76.028 15.501C75.9347 15.6496 75.8492 15.8029 75.7716 15.9602C75.6693 16.202 75.5014 16.4103 75.2868 16.5616C75.0722 16.7128 74.8196 16.8011 74.5575 16.8162C74.5575 16.8162 73.5981 16.9491 73.4782 16.1786C73.4782 16.1786 73.0401 13.0924 72.6404 6.53293C72.6521 5.75642 73.2572 5.26535 74.3004 5.18613C74.5228 5.1692 83.7477 5.1692 83.97 5.18613C85.0132 5.26535 85.6183 5.75642 85.6299 6.53293C85.2303 13.0924 84.7922 16.1785 84.7922 16.1785Z" fill="black"/>
</svg>
