<svg width="110" height="20" viewBox="0 0 110 20" fill="none" xmlns="http://www.w3.org/2000/svg">
<g clip-path="url(#clip0_223_174)">
<path d="M101.119 0.0790523C92.7961 -0.779773 80.4666 5.35552 72.9023 19.7258H85.0035C85.1399 19.3753 85.2893 19.022 85.4501 18.6673C88.7993 11.2739 96.1108 5.75477 101.781 6.33928C107.179 6.89652 109.144 12.7833 106.432 19.7272H107.945C111.924 9.53762 109.041 0.897665 101.119 0.0804885V0.0790523Z" fill="#141415"/>
<path d="M52.4573 0.274414V19.7258H49.1699V0.274414H52.4573Z" fill="#141415"/>
<path d="M0 13.4238H3.50711C3.67227 16.0261 6.82178 17.3962 9.89087 17.3962C12.5205 17.3962 15.8079 16.4096 15.8079 14.3559C15.8079 9.56197 0.603189 12.3567 0.603189 5.36981C0.603189 1.88999 4.41046 0 9.36954 0C14.7121 0 18.5754 2.30217 18.7391 6.27459H15.2593C15.0955 3.78142 12.1902 2.57648 9.31353 2.57648C6.7112 2.57648 4.05286 3.34339 4.05286 5.1788C4.05286 9.69841 19.2848 6.8505 19.2848 14.3013C19.2848 17.9721 14.8471 20 9.83342 20C4.43775 20 0.0545743 17.5341 0 13.4238Z" fill="#141415"/>
<path d="M42.1193 17.0689H30.4475V0.274414H27.1602V16.7587C27.1602 17.2455 27.354 17.7123 27.6987 18.057L28.829 19.1872C29.1737 19.5319 29.6404 19.7258 30.1273 19.7258H42.1193V17.0689Z" fill="#141415"/>
</g>
<defs>
<clipPath id="clip0_223_174">
<rect width="109.723" height="20" fill="white"/>
</clipPath>
</defs>
</svg>
