<svg width="24" height="24" viewBox="0 0 24 24" fill="none" xmlns="http://www.w3.org/2000/svg">
<g clip-path="url(#clip0_727_4988)">
<path fill-rule="evenodd" clip-rule="evenodd" d="M4.6882 4C4.30812 4 4 4.30812 4 4.6882V19.5643C4 19.9444 4.30812 20.2525 4.6882 20.2525H19.5643C19.9444 20.2525 20.2525 19.9444 20.2525 19.5643V4.6882C20.2525 4.30812 19.9444 4 19.5643 4H4.6882ZM2 4.6882C2 3.20355 3.20355 2 4.6882 2H19.5643C21.0489 2 22.2525 3.20355 22.2525 4.6882V19.5643C22.2525 21.0489 21.0489 22.2525 19.5643 22.2525H4.6882C3.20355 22.2525 2 21.0489 2 19.5643V4.6882Z" fill="black"/>
<path fill-rule="evenodd" clip-rule="evenodd" d="M2 9.33984C2 8.78756 2.44772 8.33984 3 8.33984H20.8099C21.3621 8.33984 21.8099 8.78756 21.8099 9.33984C21.8099 9.89213 21.3621 10.3398 20.8099 10.3398H3C2.44772 10.3398 2 9.89213 2 9.33984Z" fill="black"/>
<path d="M17.083 7.05859C17.6353 7.05859 18.083 6.61088 18.083 6.05859C18.083 5.50631 17.6353 5.05859 17.083 5.05859C16.5307 5.05859 16.083 5.50631 16.083 6.05859C16.083 6.61088 16.5307 7.05859 17.083 7.05859Z" fill="black"/>
<path d="M7.16895 7.05859C7.72123 7.05859 8.16895 6.61088 8.16895 6.05859C8.16895 5.50631 7.72123 5.05859 7.16895 5.05859C6.61666 5.05859 6.16895 5.50631 6.16895 6.05859C6.16895 6.61088 6.61666 7.05859 7.16895 7.05859Z" fill="black"/>
</g>
<defs>
<clipPath id="clip0_727_4988">
<rect width="20.2525" height="20.2525" fill="white" transform="translate(2 2)"/>
</clipPath>
</defs>
</svg>
