<svg width="34" height="34" viewBox="0 0 34 34" fill="none" xmlns="http://www.w3.org/2000/svg">
<g clip-path="url(#clip0_1127_12677)">
<path d="M10.0724 21.0001C7.86743 17.1809 9.18146 12.2769 13.0006 10.0719C16.8198 7.86689 21.7238 9.18093 23.9288 13.0001C26.1338 16.8193 24.8198 21.7233 21.0006 23.9283C17.1815 26.1333 12.2774 24.8193 10.0724 21.0001ZM8.34038 22.0001C11.1004 26.7806 17.2202 28.4204 22.0006 25.6604C26.7811 22.9004 28.4209 16.7806 25.6609 12.0001C22.9009 7.21964 16.7811 5.57984 12.0006 8.33984C7.22017 11.0998 5.58038 17.2196 8.34038 22.0001ZM16.5006 16.1341L13.0365 18.1341L14.0365 19.8661L17.5006 17.8661L19.0006 20.4642L20.4647 15.0001L15.0006 13.536L16.5006 16.1341Z" fill="#A0A0A0"/>
</g>
<defs>
<clipPath id="clip0_1127_12677">
<rect width="24" height="24" fill="white" transform="translate(21.3926 0.607422) rotate(60)"/>
</clipPath>
</defs>
</svg>
