<svg width="24" height="24" viewBox="0 0 24 24" fill="none" xmlns="http://www.w3.org/2000/svg">
<g clip-path="url(#clip0_1127_12568)">
<g clip-path="url(#clip1_1127_12568)">
<path d="M15.5 5.5C16.6 5.5 17.5 4.6 17.5 3.5C17.5 2.4 16.6 1.5 15.5 1.5C14.4 1.5 13.5 2.4 13.5 3.5C13.5 4.6 14.4 5.5 15.5 5.5ZM5 12C2.2 12 0 14.2 0 17C0 19.8 2.2 22 5 22C7.8 22 10 19.8 10 17C10 14.2 7.8 12 5 12ZM5 20.5C3.1 20.5 1.5 18.9 1.5 17C1.5 15.1 3.1 13.5 5 13.5C6.9 13.5 8.5 15.1 8.5 17C8.5 18.9 6.9 20.5 5 20.5ZM11.476 11.2068C11.1003 10.8139 11.1072 10.1928 11.4916 9.80843L12.4929 8.80711C12.8834 8.41658 13.5166 8.41658 13.9071 8.80711L14 8.9C15.0875 9.98755 16.455 10.7252 18.1025 10.9372C18.6502 11.0077 19.1 10.5523 19.1 10C19.1 9.44772 18.648 9.01148 18.1057 8.9071C17.06 8.70586 16.1915 8.19147 15.5 7.5L13.6 5.6C13.1 5.2 12.6 5 12 5C11.4285 5 10.9478 5.18143 10.6441 5.54429C10.6138 5.58058 10.5832 5.61679 10.5497 5.65025L7.8 8.4C7.4 8.8 7.2 9.3 7.2 9.8C7.2 10.4 7.4 10.9 7.8 11.2L10.6585 13.7012C10.8755 13.8911 11 14.1654 11 14.4538V18C11 18.5523 11.4477 19 12 19C12.5523 19 13 18.5523 13 18V13.2013C13 12.9437 12.9006 12.6961 12.7226 12.51L11.476 11.2068ZM19 12C16.2 12 14 14.2 14 17C14 19.8 16.2 22 19 22C21.8 22 24 19.8 24 17C24 14.2 21.8 12 19 12ZM19 20.5C17.1 20.5 15.5 18.9 15.5 17C15.5 15.1 17.1 13.5 19 13.5C20.9 13.5 22.5 15.1 22.5 17C22.5 18.9 20.9 20.5 19 20.5Z" fill="#FFC8B0"/>
</g>
</g>
<defs>
<clipPath id="clip0_1127_12568">
<rect width="24" height="24" fill="white"/>
</clipPath>
<clipPath id="clip1_1127_12568">
<rect width="24" height="24" fill="white"/>
</clipPath>
</defs>
</svg>
