<svg width="24" height="24" viewBox="0 0 24 24" fill="none" xmlns="http://www.w3.org/2000/svg">
<path d="M22.1 8.52L18.78 4.38C18.6869 4.26216 18.5684 4.16681 18.4333 4.10103C18.2983 4.03525 18.1502 4.00071 18 4H3.59C2.90313 4.00013 2.24443 4.27305 1.75874 4.75874C1.27305 5.24443 1.00013 5.90313 1 6.59V15.41C1.00015 16.0969 1.27307 16.7556 1.75875 17.2412C2.24444 17.7269 2.90313 17.9999 3.59 18H4.18C4.38481 18.5845 4.76619 19.0909 5.27139 19.4492C5.77659 19.8075 6.38064 20 7 20C7.61936 20 8.22341 19.8075 8.72861 19.4492C9.23381 19.0909 9.61519 18.5845 9.82 18H14.18C14.3848 18.5845 14.7662 19.0909 15.2714 19.4492C15.7766 19.8075 16.3806 20 17 20C17.6194 20 18.2234 19.8075 18.7286 19.4492C19.2338 19.0909 19.6152 18.5845 19.82 18H20.41C21.0969 17.9999 21.7556 17.7269 22.2412 17.2412C22.7269 16.7556 22.9999 16.0969 23 15.41V11.1C22.9998 10.1631 22.6826 9.25377 22.1 8.52ZM19.92 9H18V6.6L19.92 9ZM8 17C8 17.1978 7.94135 17.3911 7.83147 17.5556C7.72159 17.72 7.56541 17.8482 7.38268 17.9239C7.19996 17.9996 6.99889 18.0194 6.80491 17.9808C6.61093 17.9422 6.43274 17.847 6.29289 17.7071C6.15304 17.5673 6.0578 17.3891 6.01921 17.1951C5.98063 17.0011 6.00043 16.8 6.07612 16.6173C6.15181 16.4346 6.27998 16.2784 6.44443 16.1685C6.60888 16.0586 6.80222 16 7 16C7.26497 16.0008 7.51887 16.1064 7.70623 16.2938C7.8936 16.4811 7.99921 16.735 8 17ZM18 17C18 17.1978 17.9414 17.3911 17.8315 17.5556C17.7216 17.72 17.5654 17.8482 17.3827 17.9239C17.2 17.9996 16.9989 18.0194 16.8049 17.9808C16.6109 17.9422 16.4327 17.847 16.2929 17.7071C16.153 17.5673 16.0578 17.3891 16.0192 17.1951C15.9806 17.0011 16.0004 16.8 16.0761 16.6173C16.1518 16.4346 16.28 16.2784 16.4444 16.1685C16.6089 16.0586 16.8022 16 17 16C17.265 16.0008 17.5189 16.1064 17.7062 16.2938C17.8936 16.4811 17.9992 16.735 18 17ZM21 15.41C20.998 15.5659 20.9352 15.7148 20.825 15.825C20.7148 15.9352 20.5659 15.998 20.41 16H19.82C19.6152 15.4155 19.2338 14.9091 18.7286 14.5508C18.2234 14.1925 17.6194 14 17 14C16.3806 14 15.7766 14.1925 15.2714 14.5508C14.7662 14.9091 14.3848 15.4155 14.18 16H9.82C9.61519 15.4155 9.23381 14.9091 8.72861 14.5508C8.22341 14.1925 7.61936 14 7 14C6.38064 14 5.77659 14.1925 5.27139 14.5508C4.76619 14.9091 4.38481 15.4155 4.18 16H3.59C3.43414 15.998 3.28523 15.9352 3.17501 15.825C3.06479 15.7148 3.00199 15.5659 3 15.41V6.59C3.00198 6.43414 3.06478 6.28522 3.175 6.175C3.28522 6.06478 3.43414 6.00198 3.59 6H16V10C15.9999 10.1313 16.0257 10.2614 16.076 10.3828C16.1262 10.5041 16.1999 10.6144 16.2927 10.7073C16.3856 10.8001 16.4959 10.8738 16.6172 10.924C16.7386 10.9743 16.8687 11.0001 17 11H20.99C20.9983 11.0327 21.0016 11.0664 21 11.1V15.41Z" fill="black"/>
<path d="M6 10C6.55228 10 7 9.55228 7 9C7 8.44772 6.55228 8 6 8C5.44772 8 5 8.44772 5 9C5 9.55228 5.44772 10 6 10Z" fill="black"/>
<path d="M9 10C9.55228 10 10 9.55228 10 9C10 8.44772 9.55228 8 9 8C8.44772 8 8 8.44772 8 9C8 9.55228 8.44772 10 9 10Z" fill="black"/>
<path d="M12 10C12.5523 10 13 9.55228 13 9C13 8.44772 12.5523 8 12 8C11.4477 8 11 8.44772 11 9C11 9.55228 11.4477 10 12 10Z" fill="black"/>
</svg>
