<svg width="24" height="24" viewBox="0 0 24 24" fill="none" xmlns="http://www.w3.org/2000/svg">
<g clip-path="url(#clip0_1127_12583)">
<path d="M19.5643 3H4.6882C3.75583 3 3 3.75583 3 4.6882V19.5643C3 20.4967 3.75583 21.2525 4.6882 21.2525H19.5643C20.4967 21.2525 21.2525 20.4967 21.2525 19.5643V4.6882C21.2525 3.75583 20.4967 3 19.5643 3Z" stroke="black" stroke-width="2" stroke-linecap="round" stroke-linejoin="round"/>
<path d="M3 9.33984H20.8099" stroke="black" stroke-width="2" stroke-linecap="round" stroke-linejoin="round"/>
<path d="M17.0831 7.05859C17.6354 7.05859 18.0831 6.61088 18.0831 6.05859C18.0831 5.50631 17.6354 5.05859 17.0831 5.05859C16.5308 5.05859 16.0831 5.50631 16.0831 6.05859C16.0831 6.61088 16.5308 7.05859 17.0831 7.05859Z" fill="black"/>
<path d="M7.16943 7.05859C7.72172 7.05859 8.16943 6.61088 8.16943 6.05859C8.16943 5.50631 7.72172 5.05859 7.16943 5.05859C6.61715 5.05859 6.16943 5.50631 6.16943 6.05859C6.16943 6.61088 6.61715 7.05859 7.16943 7.05859Z" fill="black"/>
</g>
<defs>
<clipPath id="clip0_1127_12583">
<rect width="20.2525" height="20.2525" fill="white" transform="translate(2 2)"/>
</clipPath>
</defs>
</svg>
