<svg width="24" height="24" viewBox="0 0 24 24" fill="none" xmlns="http://www.w3.org/2000/svg">
<path d="M15.0703 15.6978C14.9015 15.6977 14.7354 15.655 14.5876 15.5734C14.4398 15.4918 14.3151 15.3741 14.2251 15.2313C14.1351 15.0885 14.0828 14.9252 14.0729 14.7567C14.0631 14.5882 14.0961 14.4199 14.169 14.2676C14.5052 13.5621 14.6797 12.7904 14.6797 12.0088C14.6797 11.2272 14.5052 10.4555 14.169 9.75002C14.1125 9.63152 14.0799 9.50306 14.073 9.37196C14.0662 9.24086 14.0852 9.1097 14.1291 8.98597C14.1729 8.86223 14.2407 8.74835 14.3286 8.65081C14.4164 8.55327 14.5226 8.47399 14.6411 8.4175C14.7596 8.36101 14.8881 8.32841 15.0192 8.32157C15.1503 8.31472 15.2814 8.33377 15.4052 8.37761C15.5289 8.42145 15.6428 8.48924 15.7403 8.5771C15.8379 8.66496 15.9171 8.77117 15.9736 8.88967C16.4385 9.86378 16.6797 10.9295 16.6797 12.0088C16.6797 13.0881 16.4385 14.1538 15.9736 15.1279C15.8925 15.2987 15.7645 15.4429 15.6046 15.5438C15.4446 15.6447 15.2594 15.6981 15.0703 15.6978ZM19.9629 16.3472C20.644 15.0024 20.9993 13.5163 21 12.0088C21.0043 10.5008 20.6487 9.01348 19.9629 7.67043C19.8423 7.43469 19.6331 7.25641 19.3813 7.17466C19.1294 7.09291 18.8554 7.11437 18.6194 7.23434C18.3833 7.3543 18.2045 7.56298 18.1221 7.81462C18.0396 8.06625 18.0604 8.3403 18.1797 8.57668C18.719 9.64038 19 10.8162 19 12.0088C19 13.2014 18.719 14.3772 18.1797 15.4409C18.0604 15.6773 18.0396 15.9514 18.1221 16.203C18.2045 16.4546 18.3833 16.6633 18.6194 16.7833C18.8554 16.9032 19.1294 16.9247 19.3813 16.843C19.6331 16.7612 19.8423 16.5829 19.9629 16.3472ZM13 19.167V17.0547C12.9993 16.3626 12.724 15.6991 12.2346 15.2097C11.7452 14.7203 11.0817 14.4451 10.3896 14.4443H9.53125C9.40604 14.4462 9.28338 14.4088 9.18055 14.3373C9.07772 14.2658 8.99989 14.1639 8.95801 14.0459C8.71297 13.352 8.57723 12.6243 8.55566 11.8887C8.57723 11.1531 8.71296 10.4254 8.958 9.73145C8.99988 9.61344 9.07771 9.51152 9.18054 9.44005C9.28337 9.36858 9.40603 9.33115 9.53124 9.33302H10.3896C11.0817 9.33228 11.7452 9.05702 12.2346 8.56765C12.724 8.07828 12.9992 7.41476 13 6.72269V4.61037C12.9993 3.91829 12.724 3.25477 12.2346 2.7654C11.7452 2.27602 11.0817 2.00076 10.3896 2.00002H8.05176C7.46105 1.99798 6.88737 2.19782 6.42576 2.56642C5.14648 3.60158 3 6.18898 3 11.8887C3 17.5884 5.14648 20.1758 6.42578 21.2114C6.88755 21.5797 7.46116 21.7793 8.05178 21.7774H10.3897C11.0817 21.7766 11.7453 21.5013 12.2346 21.012C12.724 20.5226 12.9993 19.8591 13 19.167ZM10.3896 4.00001C10.5515 4.00015 10.7067 4.0645 10.8211 4.17893C10.9355 4.29337 10.9999 4.44853 11 4.61037V6.72269C10.9999 6.88452 10.9355 7.03968 10.8211 7.15412C10.7066 7.26855 10.5515 7.3329 10.3896 7.33305H9.53125C8.98738 7.33074 8.45654 7.49938 8.01372 7.81515C7.5709 8.13092 7.2385 8.57784 7.06348 9.09278C6.74451 9.99126 6.57302 10.9354 6.55566 11.8887C6.57302 12.8419 6.74451 13.7861 7.06348 14.6846C7.23849 15.1995 7.5709 15.6465 8.01372 15.9622C8.45654 16.278 8.98738 16.4467 9.53125 16.4443H10.3896C10.5515 16.4445 10.7066 16.5088 10.8211 16.6233C10.9355 16.7377 10.9999 16.8929 11 17.0547V19.167C10.9999 19.3288 10.9355 19.484 10.8211 19.5984C10.7066 19.7128 10.5515 19.7772 10.3896 19.7773H8.05176C7.91882 19.7801 7.78891 19.7374 7.68359 19.6562C6.87695 19.0034 5 16.9395 5 11.8887C5 6.83791 6.87695 4.77394 7.68359 4.1216C7.78877 4.04009 7.91873 3.99717 8.05176 4.00002L10.3896 4.00001Z" fill="black"/>
</svg>
