<svg width="57" height="57" viewBox="0 0 57 57" fill="none" xmlns="http://www.w3.org/2000/svg">
<rect x="0.179688" y="0.0488281" width="56" height="56" rx="28" fill="#B8FFE2"/>
<path d="M36.4897 25.0988H36.4597C36.4397 25.0953 36.4185 25.0962 36.3985 25.093C36.3276 25.0698 36.2541 25.055 36.1797 25.0488H35.2997C35.1079 25.0499 34.9185 25.0061 34.7467 24.9211C34.5748 24.836 34.4251 24.712 34.3097 24.5588L32.9197 22.6988C32.5334 22.1887 32.0347 21.7745 31.4624 21.4883C30.8901 21.2022 30.2596 21.0518 29.6197 21.0488H24.2997C23.7978 21.0499 23.3029 21.1668 22.8536 21.3906C22.4044 21.6143 22.0129 21.9389 21.7097 22.3388L19.7797 24.9188C19.7478 24.9599 19.7068 24.993 19.66 25.0155C19.6131 25.0381 19.5617 25.0495 19.5097 25.0488C18.8924 25.0511 18.3011 25.2974 17.8647 25.7338C17.4282 26.1703 17.182 26.7616 17.1797 27.3788V29.8088C17.1795 30.6578 17.5126 31.473 18.1073 32.0789C18.702 32.6848 19.5108 33.0331 20.3597 33.0488C20.5645 33.6333 20.9459 34.1398 21.4511 34.4981C21.9563 34.8564 22.5603 35.0488 23.1797 35.0488C23.799 35.0488 24.4031 34.8564 24.9083 34.4981C25.4135 34.1398 25.7949 33.6333 25.9997 33.0488H30.3597C30.5645 33.6333 30.9459 34.1398 31.4511 34.4981C31.9563 34.8564 32.5603 35.0488 33.1797 35.0488C33.799 35.0488 34.4031 34.8564 34.9083 34.4981C35.4135 34.1398 35.7949 33.6333 35.9997 33.0488C36.8486 33.0331 37.6573 32.6848 38.252 32.0789C38.8468 31.473 39.1799 30.6578 39.1797 29.8088V28.2888C39.1799 27.5252 38.91 26.786 38.4177 26.2022C37.9254 25.6184 37.2424 25.2276 36.4897 25.0988ZM32.1797 25.0488H30.1797V23.1288C30.6357 23.2495 31.0375 23.5208 31.3197 23.8988L32.1797 25.0488ZM24.1797 32.0488C24.1797 32.2466 24.121 32.4399 24.0112 32.6044C23.9013 32.7688 23.7451 32.897 23.5624 32.9727C23.3796 33.0484 23.1786 33.0682 22.9846 33.0296C22.7906 32.991 22.6124 32.8958 22.4726 32.7559C22.3327 32.6161 22.2375 32.4379 22.1989 32.2439C22.1603 32.0499 22.1801 31.8489 22.2558 31.6661C22.3315 31.4834 22.4597 31.3272 22.6241 31.2174C22.7886 31.1075 22.9819 31.0488 23.1797 31.0488C23.4447 31.0496 23.6986 31.1552 23.8859 31.3426C24.0733 31.53 24.1789 31.7839 24.1797 32.0488ZM34.1797 32.0488C34.1797 32.2466 34.121 32.4399 34.0112 32.6044C33.9013 32.7688 33.7451 32.897 33.5624 32.9727C33.3796 33.0484 33.1786 33.0682 32.9846 33.0296C32.7906 32.991 32.6124 32.8958 32.4726 32.7559C32.3327 32.6161 32.2375 32.4379 32.1989 32.2439C32.1603 32.0499 32.1801 31.8489 32.2558 31.6661C32.3315 31.4834 32.4597 31.3272 32.6241 31.2174C32.7886 31.1075 32.9819 31.0488 33.1797 31.0488C33.4447 31.0496 33.6986 31.1552 33.8859 31.3426C34.0733 31.53 34.1789 31.7839 34.1797 32.0488ZM37.1797 29.8088C37.1813 30.1279 37.0594 30.4353 36.8394 30.6665C36.6194 30.8976 36.3185 31.0347 35.9997 31.0488C35.7949 30.4643 35.4135 29.9579 34.9083 29.5996C34.4031 29.2413 33.799 29.0488 33.1797 29.0488C32.5603 29.0488 31.9563 29.2413 31.4511 29.5996C30.9459 29.9579 30.5645 30.4643 30.3597 31.0488H25.9997C25.7949 30.4643 25.4135 29.9579 24.9083 29.5996C24.4031 29.2413 23.799 29.0488 23.1797 29.0488C22.5603 29.0488 21.9563 29.2413 21.4511 29.5996C20.9459 29.9579 20.5645 30.4643 20.3597 31.0488C20.0409 31.0347 19.7399 30.8976 19.52 30.6665C19.3 30.4353 19.178 30.1279 19.1797 29.8088V27.3788C19.1804 27.2915 19.2155 27.208 19.2772 27.1463C19.3389 27.0846 19.4224 27.0496 19.5097 27.0488C19.8718 27.0474 20.2287 26.9628 20.553 26.8015C20.8772 26.6403 21.16 26.4067 21.3797 26.1188L23.3097 23.5488C23.4231 23.3928 23.572 23.266 23.7442 23.1791C23.9164 23.0921 24.1068 23.0475 24.2997 23.0488H28.1797V26.0488C28.1796 26.1802 28.2054 26.3102 28.2557 26.4316C28.3059 26.553 28.3795 26.6632 28.4724 26.7561C28.5653 26.849 28.6756 26.9226 28.7969 26.9729C28.9183 27.0231 29.0483 27.0489 29.1797 27.0488H35.9397C36.1028 27.048 36.2644 27.0794 36.4152 27.1414C36.5661 27.2035 36.7031 27.2948 36.8184 27.4101C36.9338 27.5254 37.0251 27.6624 37.0871 27.8133C37.1491 27.9641 37.1806 28.1257 37.1797 28.2888V29.8088Z" fill="black"/>
</svg>
