<svg width="24" height="24" viewBox="0 0 24 24" fill="none" xmlns="http://www.w3.org/2000/svg">
<g clip-path="url(#clip0_1127_12575)">
<path d="M11.9502 21.9004C9.98224 21.9004 8.05847 21.3168 6.42217 20.2235C4.78587 19.1302 3.51053 17.5761 2.75742 15.758C2.00431 13.9398 1.80726 11.9392 2.19119 10.009C2.57513 8.07887 3.52279 6.30591 4.91435 4.91435C6.30591 3.52279 8.07887 2.57513 10.009 2.19119C11.9392 1.80726 13.9398 2.00431 15.758 2.75742C17.5761 3.51053 19.1302 4.78587 20.2235 6.42217C21.3168 8.05847 21.9004 9.98224 21.9004 11.9502C21.8973 14.5882 20.848 17.1173 18.9827 18.9827C17.1173 20.848 14.5882 21.8973 11.9502 21.9004ZM11.9502 4C10.3778 4 8.84072 4.46628 7.53331 5.33985C6.22591 6.21343 5.20691 7.45509 4.60518 8.90779C4.00345 10.3605 3.84601 11.959 4.15277 13.5012C4.45953 15.0434 5.21671 16.46 6.32856 17.5718C7.44042 18.6837 8.85701 19.4409 10.3992 19.7476C11.9414 20.0544 13.5399 19.897 14.9926 19.2952C16.4453 18.6935 17.687 17.6745 18.5606 16.3671C19.4341 15.0597 19.9004 13.5226 19.9004 11.9502C19.898 9.84241 19.0597 7.82162 17.5692 6.33118C16.0788 4.84075 14.058 4.00238 11.9502 4Z" fill="black"/>
<path d="M15.5664 16.5663C15.4351 16.5664 15.305 16.5406 15.1837 16.4904C15.0623 16.4401 14.9522 16.3663 14.8594 16.2733L7.62697 9.04091C7.43945 8.85339 7.33411 8.59906 7.33411 8.33388C7.33411 8.06869 7.43945 7.81436 7.62697 7.62685C7.81448 7.43933 8.06881 7.33398 8.334 7.33398C8.59919 7.33398 8.85351 7.43933 9.04103 7.62685L16.2735 14.8593C16.4133 14.9991 16.5085 15.1773 16.547 15.3712C16.5856 15.5652 16.5658 15.7662 16.4901 15.9489C16.4145 16.1316 16.2863 16.2878 16.1219 16.3977C15.9575 16.5076 15.7642 16.5662 15.5665 16.5663L15.5664 16.5663Z" fill="black"/>
<path d="M8.33401 16.5663C8.13626 16.5662 7.94297 16.5076 7.77856 16.3977C7.61415 16.2878 7.48601 16.1316 7.41034 15.9489C7.33467 15.7662 7.31486 15.5652 7.35343 15.3712C7.392 15.1773 7.4872 14.9991 7.62701 14.8593L14.8594 7.62685C14.9523 7.534 15.0625 7.46035 15.1838 7.4101C15.3051 7.35985 15.4352 7.33398 15.5665 7.33398C15.6978 7.33398 15.8278 7.35985 15.9491 7.4101C16.0704 7.46035 16.1806 7.534 16.2735 7.62685C16.3663 7.71969 16.44 7.82992 16.4902 7.95123C16.5405 8.07255 16.5664 8.20257 16.5664 8.33388C16.5664 8.46518 16.5405 8.59521 16.4902 8.71652C16.44 8.83783 16.3663 8.94806 16.2735 9.04091L9.04108 16.2733C8.94833 16.3663 8.83812 16.4401 8.71678 16.4904C8.59544 16.5406 8.46536 16.5664 8.33401 16.5663Z" fill="black"/>
</g>
<defs>
<clipPath id="clip0_1127_12575">
<rect width="19.9004" height="19.9004" fill="white" transform="translate(2 2)"/>
</clipPath>
</defs>
</svg>
