<svg width="24" height="24" viewBox="0 0 24 24" fill="none" xmlns="http://www.w3.org/2000/svg">
<path fill-rule="evenodd" clip-rule="evenodd" d="M5 4H19.71C19.9752 4 20.2296 3.89464 20.4171 3.70711C20.6046 3.51957 20.71 3.26522 20.71 3C20.71 2.73478 20.6046 2.48043 20.4171 2.29289C20.2296 2.10536 19.9752 2 19.71 2H5C4.73478 2 4.48043 2.10536 4.29289 2.29289C4.10536 2.48043 4 2.73478 4 3C4 3.26522 4.10536 3.51957 4.29289 3.70711C4.48043 3.89464 4.73478 4 5 4ZM11.4131 21.6917C11.7078 21.8295 12.0292 21.9008 12.3546 21.9004C12.6798 21.9008 13.0012 21.8296 13.2958 21.6918C13.5904 21.554 13.851 21.353 14.0591 21.103L18.9717 15.2256C19.2427 14.9013 19.4155 14.5065 19.47 14.0875C19.5245 13.6685 19.4583 13.2426 19.2794 12.8599C19.1004 12.4771 18.816 12.1533 18.4595 11.9265C18.103 11.6996 17.6892 11.5791 17.2667 11.5791H16.4234V7.92285C16.4228 7.33382 16.1885 6.76911 15.772 6.3526C15.3555 5.93609 14.7908 5.70182 14.2017 5.70117H10.546C9.95694 5.70182 9.39223 5.93609 8.97572 6.35259C8.55922 6.76909 8.32494 7.33381 8.32429 7.92283V11.5791H7.44245C7.01989 11.5791 6.60608 11.6995 6.24959 11.9264C5.89309 12.1533 5.60868 12.4771 5.42974 12.8599C5.2508 13.2427 5.18474 13.6686 5.23931 14.0876C5.29389 14.5066 5.46683 14.9014 5.73786 15.2256L10.6495 21.103C10.8577 21.3529 11.1185 21.5539 11.4131 21.6917ZM7.32342 13.6139C7.35898 13.5912 7.40027 13.5791 7.44245 13.5791H9.32429C9.5895 13.5791 9.84384 13.4737 10.0314 13.2862C10.2189 13.0986 10.3243 12.8443 10.3243 12.5791V7.92283C10.3244 7.86408 10.3478 7.80776 10.3893 7.76621C10.4309 7.72467 10.4872 7.70127 10.546 7.70115H14.2017C14.2605 7.70127 14.3168 7.72467 14.3583 7.76621C14.3999 7.80776 14.4233 7.86408 14.4234 7.92283V12.5791C14.4234 12.8443 14.5288 13.0986 14.7163 13.2862C14.9038 13.4737 15.1582 13.5791 15.4234 13.5791H17.2667C17.3088 13.5792 17.3501 13.5913 17.3856 13.614C17.4212 13.6366 17.4495 13.669 17.4674 13.7072C17.4853 13.7453 17.4919 13.7878 17.4865 13.8296C17.4812 13.8715 17.464 13.9109 17.4371 13.9433L12.5245 19.8208C12.5074 19.8508 12.4826 19.8758 12.4527 19.8931C12.4228 19.9105 12.3889 19.9197 12.3543 19.9197C12.3197 19.9197 12.2858 19.9105 12.2559 19.8931C12.226 19.8758 12.2013 19.8508 12.1841 19.8208L7.27253 13.9433C7.24547 13.911 7.2282 13.8716 7.22274 13.8297C7.21728 13.7879 7.22385 13.7454 7.24168 13.7072C7.25951 13.669 7.28786 13.6366 7.32342 13.6139Z" fill="black"/>
</svg>
