<svg width="24" height="24" viewBox="0 0 24 24" fill="none" xmlns="http://www.w3.org/2000/svg">
<g clip-path="url(#clip0_1127_12580)">
<path d="M24 5H0V18.9993H24V5Z" fill="white"/>
<path d="M16.0702 10.0614L24.0005 5.62212V5H23.4535L14.4113 10.0614H16.0702Z" fill="#BD0034"/>
<path d="M15.6953 14.2188L24.0003 18.8661V17.9372L17.355 14.2188H15.6953Z" fill="#BD0034"/>
<path d="M0 6.06633L7.10435 10.0622H8.76406L0 5.13672V6.06633Z" fill="#BD0034"/>
<path d="M8.38721 14.2188L0 18.9183V18.9991H1.51526L10.0484 14.2188H8.38721Z" fill="#BD0034"/>
<path d="M22.3575 5H13.9546V9.70596L22.3575 5Z" fill="#1A237B"/>
<path d="M10.2443 5H1.875L10.2443 9.70596V5Z" fill="#1A237B"/>
<path d="M24.0003 10.061V6.84961L18.2997 10.061H24.0003Z" fill="#1A237B"/>
<path d="M24.0003 17.3959V14.2188H18.2997L24.0003 17.3959Z" fill="#1A237B"/>
<path d="M2.34973 18.9997H10.2443V14.5762L2.34973 18.9997Z" fill="#1A237B"/>
<path d="M13.9546 18.9997H21.8741L13.9546 14.5762V18.9997Z" fill="#1A237B"/>
<path d="M0 14.2188V17.5389L5.89872 14.2188H0Z" fill="#1A237B"/>
<path d="M0 10.0615H5.89872L0 6.73633V10.0615Z" fill="#1A237B"/>
<path d="M10.9865 5V10.893H0V13.3886H10.9865V18.9992H13.2126V13.3886H24.0003V10.893H13.2126V5H10.9865Z" fill="#BD0034"/>
</g>
<defs>
<clipPath id="clip0_1127_12580">
<rect width="24" height="13.9993" fill="white" transform="translate(0 5)"/>
</clipPath>
</defs>
</svg>
