<svg width="24" height="15" viewBox="0 0 24 15" fill="none" xmlns="http://www.w3.org/2000/svg">
<g clip-path="url(#clip0_1638_2490)">
<path d="M24 0.5H0V14.4993H24V0.5Z" fill="white"/>
<path d="M16.0701 5.56136L24.0004 1.12212V0.5H23.4534L14.4111 5.56136H16.0701Z" fill="#BD0034"/>
<path d="M15.6953 9.71875L24.0003 14.3661V13.4372L17.355 9.71875H15.6953Z" fill="#BD0034"/>
<path d="M0 1.56633L7.10435 5.56221H8.76406L0 0.636719V1.56633Z" fill="#BD0034"/>
<path d="M8.38721 9.71875L0 14.4183V14.4991H1.51526L10.0484 9.71875H8.38721Z" fill="#BD0034"/>
<path d="M22.358 0.5H13.9551V5.20596L22.358 0.5Z" fill="#1A237B"/>
<path d="M10.2443 0.5H1.875L10.2443 5.20596V0.5Z" fill="#1A237B"/>
<path d="M24.0004 5.56105V2.34961L18.2998 5.56105H24.0004Z" fill="#1A237B"/>
<path d="M24.0004 12.8959V9.71875H18.2998L24.0004 12.8959Z" fill="#1A237B"/>
<path d="M2.34961 14.4997H10.2441V10.0762L2.34961 14.4997Z" fill="#1A237B"/>
<path d="M13.9551 14.4997H21.8746L13.9551 10.0762V14.4997Z" fill="#1A237B"/>
<path d="M0 9.71875V13.0389L5.89872 9.71875H0Z" fill="#1A237B"/>
<path d="M0 5.56147H5.89872L0 2.23633V5.56147Z" fill="#1A237B"/>
<path d="M10.9865 0.5V6.393H0V8.88864H10.9865V14.4992H13.2126V8.88864H24.0003V6.393H13.2126V0.5H10.9865Z" fill="#BD0034"/>
</g>
<defs>
<clipPath id="clip0_1638_2490">
<rect width="24" height="13.9993" fill="white" transform="translate(0 0.5)"/>
</clipPath>
</defs>
</svg>
