<svg width="31" height="31" viewBox="0 0 31 31" fill="none" xmlns="http://www.w3.org/2000/svg">
<g clip-path="url(#clip0_1638_2070)">
<path d="M26.2878 4.51214C23.7684 1.98742 20.4513 0.414637 16.902 0.061907C13.3528 -0.290823 9.79101 0.598332 6.82395 2.5778C3.85689 4.55727 1.66819 7.50452 0.63096 10.9171C-0.406272 14.3297 -0.227827 17.9965 1.13587 21.2922C2.49958 24.588 4.96412 27.3088 8.10937 28.9908C11.2546 30.6728 14.8859 31.2119 18.3841 30.5162C21.8824 29.8205 25.0311 27.933 27.2934 25.1756C29.5558 22.4182 30.7918 18.9614 30.7907 15.3947C30.7917 13.3739 30.3946 11.3727 29.6219 9.50544C28.8493 7.63817 27.7164 5.94143 26.2878 4.51214Z" fill="black"/>
<path fill-rule="evenodd" clip-rule="evenodd" d="M16.6711 11.9826V10.6143C16.6567 10.5096 16.6656 10.403 16.6972 10.3022C16.7288 10.2013 16.7823 10.1087 16.8539 10.0309C16.9255 9.95318 17.0134 9.89222 17.1114 9.85243C17.2093 9.81264 17.3148 9.795 17.4203 9.80077H19.3342V6.87891H16.699C13.7681 6.87891 13.1116 9.04233 13.1116 10.4479V11.9826H11.4102V15.3945H13.1298V23.9195H16.5419V15.3945H19.0659L19.1771 14.0539L19.3804 11.9826H16.6711Z" fill="white"/>
</g>
<defs>
<clipPath id="clip0_1638_2070">
<rect width="30.7895" height="30.7895" fill="white"/>
</clipPath>
</defs>
</svg>
