<svg width="32" height="31" viewBox="0 0 32 31" fill="none" xmlns="http://www.w3.org/2000/svg">
<g clip-path="url(#clip0_1638_2073)">
<path d="M27.0759 4.5106C24.5565 1.98573 21.2393 0.412815 17.6899 0.0599911C14.1406 -0.292832 10.5787 0.596275 7.6115 2.57575C4.64431 4.55522 2.45548 7.50252 1.41816 10.9152C0.380839 14.3279 0.559237 17.9948 1.92294 21.2906C3.28664 24.5865 5.75123 27.3074 8.89656 28.9895C12.0419 30.6716 15.6733 31.2108 19.1716 30.5151C22.67 29.8194 25.8188 27.9319 28.0812 25.1744C30.3437 22.4168 31.5797 18.96 31.5787 15.3931C31.5797 13.3724 31.1825 11.3712 30.4099 9.50391C29.6374 7.63665 28.5044 5.9399 27.0759 4.5106Z" fill="black"/>
<path fill-rule="evenodd" clip-rule="evenodd" d="M11.9123 15.3949C11.9132 14.5491 12.1649 13.7226 12.6355 13.0199C13.1061 12.3171 13.7746 11.7698 14.5564 11.4469C15.3381 11.1241 16.198 11.0403 17.0274 11.2062C17.8567 11.3721 18.6183 11.7802 19.2157 12.3789C19.8131 12.9776 20.2196 13.74 20.3837 14.5697C20.5478 15.3995 20.4622 16.2592 20.1377 17.0402C19.8131 17.8213 19.2643 18.4886 18.5606 18.9577C17.8568 19.4268 17.0298 19.6768 16.184 19.6758C15.0502 19.6732 13.9638 19.2211 13.163 18.4186C12.3622 17.616 11.9124 16.5286 11.9123 15.3949ZM20.6037 7.02734H11.7738C10.7251 7.03006 9.72007 7.44786 8.97851 8.18942C8.23694 8.93098 7.81913 9.93598 7.81641 10.9847V19.8146C7.82081 20.8628 8.23917 21.8668 8.98038 22.608C9.72159 23.3491 10.7256 23.7674 11.7738 23.7717H20.6037C21.6524 23.7689 22.6573 23.3511 23.3988 22.6097C24.1403 21.8682 24.5581 20.8633 24.5609 19.8146V10.9847C24.5598 9.93552 24.1425 8.92962 23.4007 8.18772C22.6588 7.44582 21.6529 7.0285 20.6037 7.02734ZM11.7738 8.01678H20.6037C21.3906 8.01758 22.1451 8.33053 22.7015 8.88695C23.2579 9.44337 23.5709 10.1978 23.5717 10.9847V19.8146C23.5708 20.6015 23.2578 21.3558 22.7014 21.9122C22.1449 22.4685 21.3906 22.7814 20.6037 22.7823H11.7738C10.9869 22.7815 10.2325 22.4686 9.67606 21.9122C9.11961 21.3559 8.80659 20.6015 8.80567 19.8146V10.9847C8.80649 10.1978 9.11947 9.44332 9.67593 8.8869C10.2324 8.33048 10.9869 8.01754 11.7738 8.01678ZM21.482 9.26486C21.3101 9.26489 21.1421 9.31589 20.9992 9.41141C20.8563 9.50693 20.745 9.64267 20.6792 9.80149C20.6135 9.9603 20.5963 10.135 20.6298 10.3036C20.6634 10.4722 20.7462 10.627 20.8678 10.7485C20.9893 10.8701 21.1442 10.9528 21.3128 10.9863C21.4814 11.0198 21.6561 11.0026 21.8149 10.9368C21.9737 10.871 22.1094 10.7596 22.2049 10.6166C22.3003 10.4737 22.3513 10.3057 22.3512 10.1338C22.3514 10.0196 22.329 9.90653 22.2853 9.80104C22.2417 9.69554 22.1776 9.59969 22.0969 9.51898C22.0162 9.43827 21.9203 9.37427 21.8148 9.33067C21.7093 9.28706 21.5962 9.2647 21.482 9.26486ZM21.5836 15.3949C21.5836 14.327 21.2668 13.283 20.6735 12.3951C20.0802 11.5072 19.2369 10.8151 18.2502 10.4064C17.2635 9.99779 16.1779 9.89088 15.1305 10.0992C14.0831 10.3076 13.1209 10.8219 12.3658 11.577C11.6107 12.3322 11.0964 13.2943 10.8881 14.3417C10.6798 15.3892 10.7867 16.4748 11.1954 17.4615C11.6041 18.4481 12.2962 19.2914 13.1841 19.8847C14.0721 20.478 15.116 20.7947 16.184 20.7947C17.6161 20.7946 18.9895 20.2257 20.0021 19.2131C21.0147 18.2004 21.5836 16.827 21.5836 15.3949Z" fill="white"/>
</g>
<defs>
<clipPath id="clip0_1638_2073">
<rect width="30.7893" height="30.7895" fill="white" transform="translate(0.789062)"/>
</clipPath>
</defs>
</svg>
