<svg width="24" height="24" viewBox="0 0 24 24" fill="none" xmlns="http://www.w3.org/2000/svg">
<g clip-path="url(#clip0_1127_12573)">
<path d="M12.1259 22.2529C10.1231 22.253 8.16521 21.6592 6.49986 20.5465C4.83451 19.4339 3.53651 17.8524 2.76999 16.002C2.00347 14.1517 1.80287 12.1155 2.19355 10.1512C2.58423 8.1868 3.54864 6.3824 4.96484 4.96614C6.38103 3.54988 8.18539 2.58538 10.1497 2.19462C12.1141 1.80385 14.1502 2.00436 16.0006 2.77079C17.851 3.53723 19.4326 4.83516 20.5453 6.50046C21.658 8.16575 22.2519 10.1236 22.2519 12.1265C22.2489 14.8112 21.1811 17.3851 19.2828 19.2835C17.3845 21.1819 14.8106 22.2498 12.1259 22.2529ZM12.1259 4C10.5187 3.99991 8.94745 4.47644 7.611 5.36934C6.27455 6.26223 5.23289 7.53138 4.61775 9.01628C4.00261 10.5012 3.84161 12.1352 4.15512 13.7116C4.46863 15.288 5.24256 16.736 6.37905 17.8726C7.51554 19.0091 8.96353 19.7831 10.5399 20.0967C12.1163 20.4103 13.7503 20.2494 15.2352 19.6344C16.7202 19.0193 17.9894 17.9777 18.8824 16.6413C19.7753 15.3049 20.2519 13.7337 20.2519 12.1265C20.2495 9.97201 19.3927 7.90648 17.8693 6.38301C16.3459 4.85954 14.2804 4.00253 12.1259 4Z" fill="black"/>
<path d="M12.165 21.6825C11.9152 21.6827 11.6744 21.5892 11.4902 21.4203C10.1713 20.2551 9.11226 18.8255 8.3819 17.2243C7.65155 15.6231 7.26623 13.8861 7.25098 12.1263C7.26623 10.3665 7.65155 8.62956 8.3819 7.02837C9.11226 5.42718 10.1713 3.99755 11.4902 2.83237C11.6859 2.6534 11.9447 2.55949 12.2096 2.57131C12.4745 2.58312 12.7239 2.69968 12.9028 2.89536C13.0818 3.09104 13.1757 3.34979 13.1639 3.61471C13.1521 3.87962 13.0355 4.12899 12.8398 4.30796C11.7269 5.28664 10.8322 6.48848 10.2139 7.83544C9.59558 9.18239 9.26751 10.6443 9.25098 12.1263C9.26751 13.6083 9.59558 15.0703 10.2139 16.4172C10.8322 17.7642 11.7269 18.966 12.8398 19.9447C12.9885 20.0807 13.0927 20.2585 13.1386 20.4548C13.1844 20.651 13.17 20.8566 13.097 21.0445C13.024 21.2323 12.896 21.3938 12.7297 21.5076C12.5634 21.6215 12.3666 21.6824 12.165 21.6825Z" fill="black"/>
<path d="M12.0703 21.6825C11.8687 21.6824 11.6719 21.6215 11.5056 21.5076C11.3393 21.3938 11.2113 21.2323 11.1383 21.0445C11.0654 20.8566 11.0509 20.651 11.0968 20.4548C11.1427 20.2585 11.2468 20.0807 11.3955 19.9447C12.5085 18.966 13.4032 17.7642 14.0215 16.4172C14.6398 15.0703 14.9678 13.6083 14.9844 12.1263C14.9678 10.6443 14.6398 9.18239 14.0215 7.83544C13.4032 6.48848 12.5085 5.28664 11.3955 4.30796C11.1998 4.12899 11.0832 3.87962 11.0714 3.61471C11.0596 3.34979 11.1535 3.09104 11.3325 2.89536C11.5115 2.69968 11.7608 2.58312 12.0257 2.57131C12.2907 2.55949 12.5494 2.6534 12.7451 2.83237C14.064 3.99755 15.1231 5.42718 15.8534 7.02837C16.5838 8.62956 16.9691 10.3665 16.9844 12.1263C16.9691 13.8862 16.5838 15.6231 15.8534 17.2243C15.1231 18.8255 14.064 20.2551 12.7451 21.4203C12.561 21.5892 12.3201 21.6828 12.0703 21.6825Z" fill="black"/>
<path d="M20.6201 10.084H3.52148C3.25627 10.084 3.00191 9.97863 2.81438 9.79109C2.62684 9.60355 2.52148 9.3492 2.52148 9.08398C2.52148 8.81877 2.62684 8.56441 2.81438 8.37688C3.00191 8.18934 3.25627 8.08398 3.52148 8.08398H20.6201C20.8853 8.08398 21.1397 8.18934 21.3272 8.37688C21.5148 8.56441 21.6201 8.81877 21.6201 9.08398C21.6201 9.3492 21.5148 9.60355 21.3272 9.79109C21.1397 9.97863 20.8853 10.084 20.6201 10.084Z" fill="black"/>
<path d="M20.6201 16.168H3.52148C3.25627 16.168 3.00191 16.0626 2.81438 15.8751C2.62684 15.6875 2.52148 15.4332 2.52148 15.168C2.52148 14.9028 2.62684 14.6484 2.81438 14.4609C3.00191 14.2733 3.25627 14.168 3.52148 14.168H20.6201C20.8853 14.168 21.1397 14.2733 21.3272 14.4609C21.5148 14.6484 21.6201 14.9028 21.6201 15.168C21.6201 15.4332 21.5148 15.6875 21.3272 15.8751C21.1397 16.0626 20.8853 16.168 20.6201 16.168Z" fill="black"/>
</g>
<defs>
<clipPath id="clip0_1127_12573">
<rect width="20.2519" height="20.2529" fill="white" transform="translate(2 2)"/>
</clipPath>
</defs>
</svg>
