<svg width="32" height="31" viewBox="0 0 32 31" fill="none" xmlns="http://www.w3.org/2000/svg">
<g clip-path="url(#clip0_1638_2076)">
<path d="M26.8555 4.5131C24.3381 1.99902 21.0269 0.435484 17.486 0.0888286C13.9451 -0.257827 10.3936 0.633844 7.43634 2.61195C4.47912 4.59005 2.29917 7.53222 1.26781 10.9373C0.236464 14.3423 0.417518 17.9996 1.78014 21.2861C3.14277 24.5727 5.60267 27.2852 8.74081 28.9615C11.8789 30.6378 15.5012 31.1744 18.9905 30.4797C22.4799 29.785 25.6204 27.902 27.8772 25.1516C30.1341 22.4012 31.3675 18.9534 31.3675 15.3956C31.3715 13.3735 30.9748 11.3707 30.2004 9.50287C29.426 7.635 28.2891 5.93909 26.8555 4.5131Z" fill="black"/>
<path fill-rule="evenodd" clip-rule="evenodd" d="M8.43771 15.5523V22.9306H11.9512V12.8802H8.43771V15.5523ZM23.426 15.9684C23.1945 14.0636 22.3257 12.8802 19.7551 12.8802C18.2478 12.8802 17.2308 13.4351 16.8057 14.2395H16.7593V12.8802H13.9574V22.9306H16.8887V17.9472C16.8887 16.6339 17.1475 15.3675 18.7569 15.3675C20.3745 15.3675 20.4944 16.8653 20.4944 18.0394V22.9306H23.509V17.4108C23.5109 16.9287 23.4832 16.447 23.426 15.9684ZM10.1946 7.85938C9.84715 7.85932 9.50746 7.9623 9.21851 8.15531C8.92957 8.34831 8.70434 8.62267 8.57132 8.94368C8.4383 9.26469 8.40347 9.61794 8.47122 9.95875C8.53897 10.2996 8.70625 10.6126 8.95193 10.8584C9.19761 11.1041 9.51065 11.2715 9.85144 11.3393C10.1922 11.4071 10.5455 11.3723 10.8665 11.2394C11.1876 11.1064 11.462 10.8813 11.655 10.5924C11.8481 10.3035 11.9512 9.96378 11.9512 9.6163C11.9513 9.38558 11.9059 9.15711 11.8177 8.94393C11.7295 8.73075 11.6001 8.53704 11.4369 8.37388C11.2738 8.21072 11.0802 8.0813 10.867 7.99302C10.6538 7.90474 10.4254 7.85932 10.1946 7.85938Z" fill="white"/>
</g>
<defs>
<clipPath id="clip0_1638_2076">
<rect width="30.7896" height="30.7895" fill="white" transform="translate(0.578125)"/>
</clipPath>
</defs>
</svg>
