<svg width="24" height="24" viewBox="0 0 24 24" fill="none" xmlns="http://www.w3.org/2000/svg">
<g clip-path="url(#clip0_1127_12566)">
<path d="M12.4443 22C11.9841 21.9987 11.5325 21.8751 11.1357 21.6418C10.739 21.4085 10.4114 21.0739 10.1865 20.6724L6.24317 14.6114C5.43104 13.3651 4.9991 11.9094 5 10.4219V7.88919C5.00172 6.3279 5.62267 4.83104 6.72662 3.72699C7.83058 2.62294 9.32738 2.00186 10.8887 2H14.0273C15.5886 2.00186 17.0854 2.62294 18.1894 3.72698C19.2933 4.83102 19.9143 6.32787 19.916 7.88916V10.4131C19.9169 11.9071 19.4814 13.3687 18.6631 14.6187L14.668 20.7295C14.4436 21.1197 14.1193 21.443 13.7285 21.6663C13.3377 21.8896 12.8944 22.0048 12.4443 22ZM10.8887 4C9.85761 4.00117 8.8691 4.41131 8.14008 5.14043C7.41105 5.86955 7.00104 6.8581 7 7.88916V10.4219C6.99955 11.5224 7.31917 12.5994 7.91992 13.5215L11.8955 19.6372C11.9396 19.7371 12.0103 19.823 12.0998 19.8856C12.1894 19.9481 12.2944 19.9848 12.4034 19.9918C12.5124 19.9987 12.6212 19.9756 12.7179 19.925C12.8147 19.8743 12.8957 19.7981 12.9521 19.7046L16.9893 13.5239C17.5948 12.5995 17.9169 11.5182 17.916 10.4131V7.88916C17.915 6.8581 17.505 5.86955 16.7759 5.14043C16.0469 4.41131 15.0584 4.00117 14.0273 4H10.8887ZM12.458 12.7754C11.5598 12.7744 10.6987 12.4172 10.0636 11.7821C9.42849 11.147 9.07127 10.2859 9.07031 9.3877C9.07127 8.48952 9.42849 7.6284 10.0636 6.99329C10.6987 6.35818 11.5598 6.00095 12.458 6C13.3562 6.00095 14.2173 6.35818 14.8524 6.99329C15.4875 7.6284 15.8448 8.48952 15.8457 9.3877C15.8447 10.2859 15.4875 11.147 14.8524 11.7821C14.2173 12.4172 13.3562 12.7744 12.458 12.7754ZM12.458 8C12.0901 8.00034 11.7373 8.14666 11.4771 8.40683C11.217 8.667 11.0707 9.01977 11.0703 9.3877C11.0707 9.75564 11.217 10.1084 11.4771 10.3686C11.7373 10.6287 12.0901 10.775 12.458 10.7754C12.8259 10.775 13.1787 10.6287 13.4389 10.3686C13.699 10.1084 13.8454 9.75564 13.8457 9.3877C13.8454 9.01977 13.699 8.667 13.4389 8.40683C13.1787 8.14666 12.8259 8.00034 12.458 8Z" fill="black"/>
</g>
<defs>
<clipPath id="clip0_1127_12566">
<rect width="14.916" height="20" fill="white" transform="translate(5 2)"/>
</clipPath>
</defs>
</svg>
