<svg width="24" height="24" viewBox="0 0 24 24" fill="none" xmlns="http://www.w3.org/2000/svg">
<g clip-path="url(#clip0_1127_12576)">
<path d="M19.9055 12.9981C20.4561 12.9981 20.9025 12.5517 20.9025 12.0011C20.9025 11.4504 20.4561 11.004 19.9055 11.004L13.997 11.004C13.4447 11.004 12.997 10.5563 12.997 10.004L12.997 4.0956C12.997 3.54496 12.5506 3.09858 12 3.09858C11.4494 3.09858 11.003 3.54496 11.003 4.0956L11.003 10.004C11.003 10.5563 10.5553 11.004 10.003 11.004L4.09455 11.004C3.54391 11.004 3.09753 11.4504 3.09753 12.0011C3.09753 12.5517 3.54391 12.9981 4.09455 12.9981H10.003C10.5553 12.9981 11.003 13.4458 11.003 13.9981V19.9065C11.003 20.4571 11.4494 20.9035 12 20.9035C12.5506 20.9035 12.997 20.4571 12.997 19.9065V13.9981C12.997 13.4458 13.4447 12.9981 13.997 12.9981H19.9055Z" fill="black"/>
</g>
<defs>
<clipPath id="clip0_1127_12576">
<rect width="24" height="24" fill="white"/>
</clipPath>
</defs>
</svg>
