<svg width="36" height="36" viewBox="0 0 36 36" fill="none" xmlns="http://www.w3.org/2000/svg">
<path d="M11.9839 24.0535C8.79561 20.8652 8.79561 15.6744 11.9839 12.4861C15.1721 9.29783 20.363 9.29783 23.5513 12.4861C26.7395 15.6744 26.7395 20.8652 23.5513 24.0535C20.363 27.2418 15.1721 27.2418 11.9839 24.0535ZM10.538 25.4994C14.5287 29.4902 21.0065 29.4902 24.9972 25.4994C28.988 21.5087 28.988 15.0309 24.9972 11.0402C21.0065 7.04942 14.5287 7.04942 10.538 11.0402C6.5472 15.0309 6.5472 21.5087 10.538 25.4994ZM17.0446 17.5468L14.1528 20.4387L15.5987 21.8846L18.4905 18.9928L20.6594 21.1617L20.6594 15.378H14.8757L17.0446 17.5468Z" fill="#E4E7E4"/>
</svg>
