<svg xmlns="http://www.w3.org/2000/svg" viewBox="0 0 880.45996 209.19103">
  <g>
    <path d="M861.68018,78.7008v57.58984c-.25-.02-.5-.02-.75-.02H646.23V78.7008a18.66936,18.66936,0,0,1,18.66016-18.66993h178.27A18.67239,18.67239,0,0,1,861.68018,78.7008Z" style="fill: #e7e8e7"/>
    <path d="M880.46,155.80089v33.85987A19.53159,19.53159,0,0,1,860.93018,209.191H19.53A19.52539,19.52539,0,0,1,0,189.66076V155.80089a19.52539,19.52539,0,0,1,19.53-19.53027H860.93018c.25,0,.5,0,.75.02A19.51818,19.51818,0,0,1,880.46,155.80089Z" style="fill: #ffbba3"/>
    <rect x="739.22294" y="-49.71871" width="30.01523" height="189.48505" rx="5.81267" transform="translate(799.25438 -709.20674) rotate(90)" style="fill: #abffd5"/>
    <rect x="739.22294" y="-79.73491" width="30.01523" height="189.48505" rx="5.81267" transform="translate(769.23817 -739.22294) rotate(90)" style="fill: #ffbba3"/>
  </g>
</svg>
