<svg xmlns="http://www.w3.org/2000/svg" viewBox="0 0 718.22235 224.9613">
  <path d="M718.18982,117.36377c-1.189-26.54828-21.52979-49-49-49a50.72464,50.72464,0,0,0-28.43848,9.18133,36.83059,36.83059,0,0,0,.5293-7.7918c-1.18946-26.54828-21.52979-49-49-49A49.61945,49.61945,0,0,0,572.17322,25.217a50.44037,50.44037,0,0,0-5.063-5.98206q-.61011-.61047-1.22071-1.22082A36.726,36.726,0,0,0,550.12,7.88251a44.33642,44.33642,0,0,0-37.75732,0A36.72886,36.72886,0,0,0,496.59314,18.0141l-7.66162,9.917a48.65923,48.65923,0,0,0-6.6128,22.48651A49.86778,49.86778,0,0,0,463.6322,61.96228a51.026,51.026,0,0,0-9.9541,14.58307,47.84049,47.84049,0,0,0-12.38184-2.03644c3.86963-7.20917,6.22022-15.47388,5.87989-23.06732-1.189-26.54834-21.52979-49-49-49a50.77182,50.77182,0,0,0-29.29834,9.782,47.23361,47.23361,0,0,0-30.52-11.00287,50.5518,50.5518,0,0,0-34.648,14.35181,52.34006,52.34006,0,0,0-13.188,23.80792,47.37094,47.37094,0,0,0-21.74854-5.19861,50.773,50.773,0,0,0-29.2539,9.74793A47.23487,47.23487,0,0,0,225.139,40.46057C220.476,17.81146,201.67908,0,177.21472,0a50.55379,50.55379,0,0,0-34.64844,14.35175A52.09517,52.09517,0,0,0,130.8031,33.38483,47.3716,47.3716,0,0,0,108.851,28.078c-.26709,0-.53613.01667-.80371.02161A47.738,47.738,0,0,0,68.56531,7.32471,50.55291,50.55291,0,0,0,33.91687,21.67645c-8.49854,8.49866-14.89844,22.44232-14.35156,34.64826a53.44734,53.44734,0,0,0,9.08886,27.60956,48.91262,48.91262,0,0,0-14.26953,9.76831c-8.499,8.49865-14.89892,22.44232-14.352,34.64825,1.189,26.54828,21.52979,49,49,49a49.38089,49.38089,0,0,0,18.96338-3.9585c8.05078,15.94019,23.88867,27.15332,43.29639,27.15332a50.5529,50.5529,0,0,0,34.64843-14.35174,50.966,50.966,0,0,0,9.90821-14.46875,47.2536,47.2536,0,0,0,41.167,9.09955c3.29053,24.37,22.7876,44.13659,48.5625,44.13659a50.55384,50.55384,0,0,0,34.64844-14.35174c7.915-7.91541,14.00341-20.55268,14.36084-32.11151,8.26172,15.17163,23.731,25.71,42.54931,25.71a50.55379,50.55379,0,0,0,34.64844-14.35175,52.34075,52.34075,0,0,0,13.01856-23.1145c2.52,25.222,22.34228,46.01172,48.7749,46.01172A48.44313,48.44313,0,0,0,477.368,185.51a36.53618,36.53618,0,0,0,11.71289-3.8338,36.4935,36.4935,0,0,0,9.23731-4.52429,47.58907,47.58907,0,0,0,37.80615,18.51068,50.27248,50.27248,0,0,0,23.87549-6.34284c8.06005,15.90973,23.8833,27.09613,43.26757,27.09613a50.55291,50.55291,0,0,0,34.64844-14.35174,51.56357,51.56357,0,0,0,10.75195-16.3946c1.52637.14429,3.07618.22681,4.65186.22681A48.568,48.568,0,0,0,697.91,156.9873a46.144,46.144,0,0,0,5.92774-4.97528C712.33679,143.51331,718.7362,129.5697,718.18982,117.36377Z" style="fill: #adffd7"/>
</svg>
