<svg width="24" height="24" viewBox="0 0 24 24" fill="none" xmlns="http://www.w3.org/2000/svg">
<path d="M20.9835 7.50039C20.9577 5.84149 19.7226 4.20521 17.1812 4.01876C16.8404 3.99375 7.15964 3.99375 6.81879 4.01876C4.27746 4.20521 3.04231 5.84149 3.01654 7.50039C3.00598 7.61002 3 7.72788 3 7.85622L3.88749 17.653C4.02446 18.8495 4.80998 20 6.57316 20C6.60234 20 8.18665 19.9792 8.18665 19.9792C9.62948 19.9792 10.091 18.0483 10.4803 17.388C10.8898 16.693 11.1251 16.6217 12 16.6186C12.875 16.6217 13.1102 16.693 13.5197 17.388C13.909 18.0483 14.3705 19.9792 15.8134 19.9792C15.8134 19.9792 17.3977 20 17.4268 20C19.19 20 19.9755 18.8495 20.1125 17.653L21 7.85622C21 7.72788 20.994 7.61002 20.9835 7.50039ZM17.8628 17.1785C17.7387 17.949 16.7443 17.8162 16.7443 17.8162C15.9861 17.8162 15.603 17.1936 15.486 16.9602C15.4057 16.8028 15.317 16.6496 15.2203 16.501C14.7314 15.7374 13.8685 14.7292 12.0619 14.684V14.6798C12.0405 14.6798 12.0211 14.6816 12 14.6819C11.979 14.6816 11.9595 14.6798 11.9382 14.6798V14.684C10.1315 14.7292 9.26863 15.7374 8.77971 16.501C8.68307 16.6496 8.59441 16.8028 8.51407 16.9602C8.39704 17.1936 8.0139 17.8162 7.25578 17.8162C7.25578 17.8162 6.26143 17.949 6.13718 17.1785C6.13718 17.1785 5.68312 14.0924 5.26894 7.53289C5.28097 6.75638 5.9081 6.26531 6.98929 6.18609C7.21977 6.16917 16.7803 6.16917 17.0107 6.18609C18.0919 6.26531 18.719 6.75638 18.7311 7.53289C18.3169 14.0924 17.8628 17.1785 17.8628 17.1785Z" fill="black"/>
</svg>
