<svg width="57" height="57" viewBox="0 0 57 57" fill="none" xmlns="http://www.w3.org/2000/svg">
<rect x="0.179688" y="0.0488281" width="56" height="56" rx="28" fill="#B8FFE2"/>
<path d="M38.2797 24.5688L34.9597 20.4288C34.8665 20.311 34.7481 20.2156 34.613 20.1499C34.478 20.0841 34.3299 20.0495 34.1797 20.0488H19.7697C19.0828 20.049 18.4241 20.3219 17.9384 20.8076C17.4527 21.2933 17.1798 21.952 17.1797 22.6388V31.4588C17.1798 32.1457 17.4528 32.8044 17.9384 33.2901C18.4241 33.7758 19.0828 34.0487 19.7697 34.0488H20.3597C20.5645 34.6333 20.9459 35.1398 21.4511 35.4981C21.9563 35.8564 22.5603 36.0488 23.1797 36.0488C23.799 36.0488 24.4031 35.8564 24.9083 35.4981C25.4135 35.1398 25.7949 34.6333 25.9997 34.0488H30.3597C30.5645 34.6333 30.9459 35.1398 31.4511 35.4981C31.9563 35.8564 32.5603 36.0488 33.1797 36.0488C33.799 36.0488 34.4031 35.8564 34.9083 35.4981C35.4135 35.1398 35.7949 34.6333 35.9997 34.0488H36.5897C37.2766 34.0487 37.9352 33.7758 38.4209 33.2901C38.9066 32.8044 39.1795 32.1457 39.1797 31.4588V27.1488C39.1795 26.2119 38.8623 25.3026 38.2797 24.5688ZM36.0997 25.0488H34.1797V22.6488L36.0997 25.0488ZM24.1797 33.0488C24.1797 33.2466 24.121 33.4399 24.0112 33.6044C23.9013 33.7688 23.7451 33.897 23.5624 33.9727C23.3796 34.0484 23.1786 34.0682 22.9846 34.0296C22.7906 33.991 22.6124 33.8958 22.4726 33.7559C22.3327 33.6161 22.2375 33.4379 22.1989 33.2439C22.1603 33.0499 22.1801 32.8489 22.2558 32.6661C22.3315 32.4834 22.4597 32.3272 22.6241 32.2174C22.7886 32.1075 22.9819 32.0488 23.1797 32.0488C23.4447 32.0496 23.6986 32.1552 23.8859 32.3426C24.0733 32.53 24.1789 32.7839 24.1797 33.0488ZM34.1797 33.0488C34.1797 33.2466 34.121 33.4399 34.0112 33.6044C33.9013 33.7688 33.7451 33.897 33.5624 33.9727C33.3796 34.0484 33.1786 34.0682 32.9846 34.0296C32.7906 33.991 32.6124 33.8958 32.4726 33.7559C32.3327 33.6161 32.2375 33.4379 32.1989 33.2439C32.1603 33.0499 32.1801 32.8489 32.2558 32.6661C32.3315 32.4834 32.4597 32.3272 32.6241 32.2174C32.7886 32.1075 32.9819 32.0488 33.1797 32.0488C33.4447 32.0496 33.6986 32.1552 33.8859 32.3426C34.0733 32.53 34.1789 32.7839 34.1797 33.0488ZM37.1797 31.4588C37.1777 31.6147 37.1149 31.7636 37.0047 31.8738C36.8945 31.984 36.7455 32.0468 36.5897 32.0488H35.9997C35.7949 31.4643 35.4135 30.9579 34.9083 30.5996C34.4031 30.2413 33.799 30.0488 33.1797 30.0488C32.5603 30.0488 31.9563 30.2413 31.4511 30.5996C30.9459 30.9579 30.5645 31.4643 30.3597 32.0488H25.9997C25.7949 31.4643 25.4135 30.9579 24.9083 30.5996C24.4031 30.2413 23.799 30.0488 23.1797 30.0488C22.5603 30.0488 21.9563 30.2413 21.4511 30.5996C20.9459 30.9579 20.5645 31.4643 20.3597 32.0488H19.7697C19.6138 32.0468 19.4649 31.984 19.3547 31.8738C19.2445 31.7636 19.1817 31.6147 19.1797 31.4588V22.6388C19.1817 22.483 19.2445 22.334 19.3547 22.2238C19.4649 22.1136 19.6138 22.0508 19.7697 22.0488H32.1797V26.0488C32.1796 26.1802 32.2054 26.3102 32.2557 26.4316C32.3059 26.553 32.3795 26.6632 32.4724 26.7561C32.5653 26.849 32.6756 26.9226 32.7969 26.9729C32.9183 27.0231 33.0483 27.0489 33.1797 27.0488H37.1697C37.178 27.0815 37.1813 27.1152 37.1797 27.1488V31.4588Z" fill="black"/>
<path d="M22.1797 26.0488C22.732 26.0488 23.1797 25.6011 23.1797 25.0488C23.1797 24.4965 22.732 24.0488 22.1797 24.0488C21.6274 24.0488 21.1797 24.4965 21.1797 25.0488C21.1797 25.6011 21.6274 26.0488 22.1797 26.0488Z" fill="black"/>
<path d="M25.1797 26.0488C25.732 26.0488 26.1797 25.6011 26.1797 25.0488C26.1797 24.4965 25.732 24.0488 25.1797 24.0488C24.6274 24.0488 24.1797 24.4965 24.1797 25.0488C24.1797 25.6011 24.6274 26.0488 25.1797 26.0488Z" fill="black"/>
<path d="M28.1797 26.0488C28.732 26.0488 29.1797 25.6011 29.1797 25.0488C29.1797 24.4965 28.732 24.0488 28.1797 24.0488C27.6274 24.0488 27.1797 24.4965 27.1797 25.0488C27.1797 25.6011 27.6274 26.0488 28.1797 26.0488Z" fill="black"/>
</svg>
