<svg width="24" height="24" viewBox="0 0 24 24" fill="none" xmlns="http://www.w3.org/2000/svg">
<path fill-rule="evenodd" clip-rule="evenodd" d="M10.507 18.1621H14.1632C14.7522 18.1614 15.3169 17.9271 15.7334 17.5106C16.1499 17.0941 16.3842 16.5294 16.3849 15.9404V12.2842H17.2667C17.6893 12.2841 18.103 12.1636 18.4594 11.9367C18.8159 11.7098 19.1003 11.3861 19.2792 11.0033C19.4582 10.6206 19.5243 10.1947 19.4699 9.77576C19.4154 9.35676 19.2427 8.96198 18.9718 8.63769L14.0597 2.76025C13.8447 2.52099 13.5818 2.32965 13.2881 2.19867C12.9943 2.06769 12.6763 2 12.3546 2C12.033 2 11.7149 2.06769 11.4212 2.19867C11.1274 2.32965 10.8645 2.52099 10.6495 2.76025L5.73744 8.6372C5.46654 8.96151 5.29373 9.35633 5.23925 9.77537C5.18477 10.1944 5.25089 10.6203 5.42986 11.0031C5.60883 11.3859 5.89322 11.7097 6.2497 11.9366C6.60617 12.1635 7.01995 12.2841 7.44252 12.2842H8.28529V15.9404C8.28601 16.5294 8.52032 17.0941 8.9368 17.5106C9.35329 17.9271 9.91796 18.1614 10.507 18.1621ZM12.2605 3.9832C12.29 3.96941 12.3221 3.96248 12.3546 3.96291C12.3871 3.96248 12.4193 3.96941 12.4487 3.9832C12.4782 3.99698 12.5041 4.01726 12.5245 4.0425L17.4367 9.92043C17.4638 9.95273 17.4812 9.99211 17.4867 10.0339C17.4922 10.0758 17.4856 10.1183 17.4678 10.1565C17.4499 10.1948 17.4215 10.2271 17.3859 10.2497C17.3503 10.2723 17.3089 10.2843 17.2667 10.2842H15.3849C15.2536 10.2842 15.1235 10.31 15.0022 10.3603C14.8808 10.4105 14.7706 10.4842 14.6777 10.577C14.5848 10.6699 14.5112 10.7801 14.4609 10.9015C14.4107 11.0228 14.3849 11.1529 14.3849 11.2842V15.9405C14.3848 15.9992 14.3614 16.0555 14.3198 16.0971C14.2783 16.1386 14.222 16.162 14.1632 16.1621H10.507C10.4482 16.162 10.3919 16.1386 10.3503 16.0971C10.3088 16.0555 10.2854 15.9992 10.2853 15.9405V11.2842C10.2853 11.1529 10.2595 11.0228 10.2092 10.9015C10.159 10.7801 10.0853 10.6699 9.99247 10.577C9.8996 10.4842 9.78935 10.4105 9.66801 10.3603C9.54667 10.31 9.41662 10.2842 9.28529 10.2842H7.44255C7.40031 10.2843 7.35894 10.2723 7.3233 10.2496C7.28766 10.2269 7.25924 10.1946 7.24138 10.1563C7.22353 10.118 7.21698 10.0754 7.22252 10.0336C7.22805 9.99169 7.24544 9.95227 7.27263 9.91995L12.1847 4.0425C12.2052 4.01726 12.2311 3.99698 12.2605 3.9832ZM5 21.8633H19.709H19.709C19.9742 21.8633 20.2286 21.7579 20.4161 21.5704C20.6036 21.3829 20.709 21.1285 20.709 20.8633C20.709 20.5981 20.6036 20.3437 20.4161 20.1562C20.2286 19.9686 19.9742 19.8633 19.709 19.8633H5C4.73478 19.8633 4.48043 19.9686 4.29289 20.1562C4.10536 20.3437 4 20.5981 4 20.8633C4 21.1285 4.10536 21.3829 4.29289 21.5704C4.48043 21.7579 4.73478 21.8633 5 21.8633Z" fill="black"/>
</svg>
