<svg width="56" height="57" viewBox="0 0 56 57" fill="none" xmlns="http://www.w3.org/2000/svg">
<circle cx="28" cy="28.3496" r="28" fill="#B8FFE2"/>
<path d="M35.3113 28.3864L33.9829 27.3688L33.3503 22.9321C33.3057 22.6161 33.1834 22.3161 32.9943 22.059C32.8052 21.802 32.5553 21.5959 32.2669 21.4592C31.9833 21.3231 31.6704 21.2596 31.3562 21.2743C31.0421 21.289 30.7364 21.3814 30.4668 21.5433C29.9245 21.8677 29.3041 22.0384 28.6721 22.037C28.0079 22.0353 27.3576 21.8463 26.7959 21.4917C26.2343 21.137 25.7841 20.6311 25.497 20.0321C25.3664 19.7591 25.1722 19.5214 24.9307 19.3389C24.6892 19.1564 24.4075 19.0346 24.1092 18.9835C23.803 18.9305 23.4885 18.9519 23.1923 19.0457C22.8961 19.1396 22.6267 19.3032 22.4069 19.5229L18.2526 23.6763C17.9263 24.0058 17.7289 24.4414 17.6962 24.904C17.6635 25.3665 17.7977 25.8255 18.0744 26.1977C18.0936 26.2239 18.1143 26.249 18.1365 26.2727L27.1664 36.0147C27.3473 36.2413 27.5767 36.4243 27.8378 36.5503C28.0989 36.6762 28.385 36.7419 28.6749 36.7425H36.0692C36.5809 36.7419 37.0714 36.5384 37.4332 36.1765C37.795 35.8147 37.9986 35.3242 37.9991 34.8125V33.7621C37.9966 32.7193 37.7526 31.6913 37.2863 30.7587C36.82 29.826 36.144 29.014 35.3113 28.3864ZM23.8057 20.8348C24.2454 21.7532 24.9353 22.529 25.7962 23.0728C26.657 23.6167 27.6539 23.9067 28.6721 23.9094C29.6564 23.8965 30.6238 23.6522 31.4962 23.1963L31.6923 24.5722H29.8588C29.6105 24.5722 29.3724 24.6708 29.1968 24.8464C29.0213 25.022 28.9226 25.2601 28.9226 25.5084C28.9226 25.7566 29.0213 25.9948 29.1968 26.1703C29.3724 26.3459 29.6105 26.4445 29.8588 26.4445H31.9592L32.0926 27.3807H30.795C30.5467 27.3807 30.3086 27.4793 30.133 27.6549C29.9574 27.8305 29.8588 28.0686 29.8588 28.3169C29.8588 28.5652 29.9574 28.8033 30.133 28.9789C30.3086 29.1544 30.5467 29.2531 30.795 29.2531H33.347L34.1887 29.8839C34.7319 30.2955 35.182 30.8174 35.5095 31.4152H30.155L22.1079 22.5069L23.8057 20.8348ZM36.0692 34.8701L28.6301 34.8482C28.61 34.8216 28.5889 34.7961 28.567 34.7723L19.5774 24.9991L20.7728 23.8217L29.0442 32.9786C29.1319 33.0758 29.2391 33.1536 29.3588 33.2068C29.4785 33.26 29.608 33.2876 29.739 33.2876H36.0756C36.0836 33.2876 36.0903 33.2832 36.0983 33.283C36.1158 33.4421 36.1253 33.602 36.1268 33.7621L36.0692 34.8701Z" fill="black"/>
</svg>
